<svg xmlns="http://www.w3.org/2000/svg" 
     width="24" height="24" viewBox="0 0 24 24" 
     fill="currentColor">
  <path d="M12 2C10.34 2 9 3.34 9 5c0 .74.27 1.41.72 1.93L7.59 9.06C7.21 9.02 6.86 9 6.5 9 4.57 9 3 10.57 3 12.5S4.57 16 6.5 16c.36 0 .71-.02 1.09-.06l2.13 2.13c-.45.52-.72 1.19-.72 1.93 0 1.66 1.34 3 3 3s3-1.34 3-3c0-.74-.27-1.41-.72-1.93l2.13-2.13c.38.04.73.06 1.09.06 1.93 0 3.5-1.57 3.5-3.5S18.93 9 17 9c-.36 0-.71.02-1.09.06l-2.13-2.13c.45-.52.72-1.19.72-1.93 0-1.66-1.34-3-3-3zm0 2c.55 0 1 .45 1 1s-.45 1-1 1-1-.45-1-1 .45-1 1-1zm-5.5 7c.83 0 1.5.67 1.5 1.5S7.33 14 6.5 14 5 13.33 5 12.5 5.67 11 6.5 11zm11 0c.83 0 1.5.67 1.5 1.5S18.33 14 17.5 14 16 13.33 16 12.5s.67-1.5 1.5-1.5zM12 18c.55 0 1 .45 1 1s-.45 1-1 1-1-.45-1-1 .45-1 1-1z"/>
</svg>